HIERARCHY
ROOT hip
{
  OFFSET 0 0 0
  CHANNELS 6 Xposition Yposition Zposition Zrotation Yrotation Xrotation
  JOINT abdomen
  {
    OFFSET 0 20.6881 -0.73152
    CHANNELS 3 Zrotation Xrotation Yrotation
    JOINT chest
    {
      OFFSET 0 11.7043 -0.48768
      CHANNELS 3 Zrotation Xrotation Yrotation
      JOINT neck
      {
        OFFSET 0 22.1894 -2.19456
        CHANNELS 3 Zrotation Xrotation Yrotation
        JOINT head
        {
          OFFSET -0.24384 7.07133 1.2192
          CHANNELS 3 Zrotation Xrotation Yrotation
          JOINT leftEye
          {
            OFFSET 4.14528 8.04674 8.04672
            CHANNELS 3 Zrotation Xrotation Yrotation
            End Site
            {
              OFFSET 1 0 0
            }
          }
          JOINT rightEye
          {
            OFFSET -3.6576 8.04674 8.04672
            CHANNELS 3 Zrotation Xrotation Yrotation
            End Site
            {
              OFFSET 1 0 0
            }
          }
        }
      }
      JOINT rCollar
      {
        OFFSET -2.68224 19.2634 -4.8768
        CHANNELS 3 Zrotation Xrotation Yrotation
        JOINT rShldr
        {
          OFFSET -8.77824 -1.95073 1.46304
          CHANNELS 3 Zrotation Xrotation Yrotation
          JOINT rForeArm
          {
            OFFSET -28.1742 -1.7115 0.48768
            CHANNELS 3 Zrotation Xrotation Yrotation
            JOINT rHand
            {
              OFFSET -22.5879 0.773209 7.07136
              CHANNELS 3 Zrotation Xrotation Yrotation
              JOINT rThumb1
              {
                OFFSET -1.2192 -0.487915 3.41376
                CHANNELS 3 Zrotation Xrotation Yrotation
                JOINT rThumb2
                {
                  OFFSET -3.37035 -0.52449 3.41376
                  CHANNELS 3 Zrotation Xrotation Yrotation
                  End Site
                  {
                    OFFSET -1.78271 -1.18214 1.43049
                  }
                }
              }
              JOINT rIndex1
              {
                OFFSET -7.75947 0.938293 5.60832
                CHANNELS 3 Zrotation Xrotation Yrotation
                JOINT rIndex2
                {
                  OFFSET -2.54057 -0.884171 1.56538
                  CHANNELS 3 Zrotation Xrotation Yrotation
                  End Site
                  {
                    OFFSET -1.62519 -0.234802 1.16502
                  }
                }
              }
              JOINT rMid1
              {
                OFFSET -8.24714 1.18213 3.41376
                CHANNELS 3 Zrotation Xrotation Yrotation
                JOINT rMid2
                {
                  OFFSET -3.10165 -0.590103 1.0647
                  CHANNELS 3 Zrotation Xrotation Yrotation
                  End Site
                  {
                    OFFSET -2.48547 -0.328903 0.83742
                  }
                }
              }
              JOINT rRing1
              {
                OFFSET -8.82822 0.546677 1.51678
                CHANNELS 3 Zrotation Xrotation Yrotation
                JOINT rRing2
                {
                  OFFSET -2.60934 -0.819778 -0.0198488
                  CHANNELS 3 Zrotation Xrotation Yrotation
                  End Site
                  {
                    OFFSET -2.33842 -0.294052 0.168128
                  }
                }
              }
              JOINT rPinky1
              {
                OFFSET -8.27202 -0.0477905 -0.4584
                CHANNELS 3 Zrotation Xrotation Yrotation
                JOINT rPinky2
                {
                  OFFSET -1.82734 -0.647385 -0.700984
                  CHANNELS 3 Zrotation Xrotation Yrotation
                  End Site
                  {
                    OFFSET -1.69225 -0.51767 -0.607171
                  }
                }
              }
            }
          }
        }
      }
      JOINT lCollar
      {
        OFFSET 2.68224 19.2634 -4.8768
        CHANNELS 3 Zrotation Xrotation Yrotation
        JOINT lShldr
        {
          OFFSET 8.77824 -1.95073 1.46304
          CHANNELS 3 Zrotation Xrotation Yrotation
          JOINT lForeArm
          {
            OFFSET 28.1742 -1.7115 0.48768
            CHANNELS 3 Zrotation Xrotation Yrotation
            JOINT lHand
            {
              OFFSET 22.5879 0.773209 7.07136
              CHANNELS 3 Zrotation Xrotation Yrotation
              JOINT lThumb1
              {
                OFFSET 1.2192 -0.487915 3.41376
                CHANNELS 3 Zrotation Xrotation Yrotation
                JOINT lThumb2
                {
                  OFFSET 3.37035 -0.52449 3.41376
                  CHANNELS 3 Zrotation Xrotation Yrotation
                  End Site
                  {
                    OFFSET 1.78271 -1.18214 1.43049
                  }
                }
              }
              JOINT lIndex1
              {
                OFFSET 7.75947 0.938293 5.60832
                CHANNELS 3 Zrotation Xrotation Yrotation
                JOINT lIndex2
                {
                  OFFSET 2.54057 -0.884171 1.56538
                  CHANNELS 3 Zrotation Xrotation Yrotation
                  End Site
                  {
                    OFFSET 1.62519 -0.234802 1.16502
                  }
                }
              }
              JOINT lMid1
              {
                OFFSET 8.24714 1.18213 3.41376
                CHANNELS 3 Zrotation Xrotation Yrotation
                JOINT lMid2
                {
                  OFFSET 3.10165 -0.590103 1.0647
                  CHANNELS 3 Zrotation Xrotation Yrotation
                  End Site
                  {
                    OFFSET 2.48547 -0.328903 0.83742
                  }
                }
              }
              JOINT lRing1
              {
                OFFSET 8.82822 0.546677 1.51678
                CHANNELS 3 Zrotation Xrotation Yrotation
                JOINT lRing2
                {
                  OFFSET 2.60934 -0.819778 -0.0198488
                  CHANNELS 3 Zrotation Xrotation Yrotation
                  End Site
                  {
                    OFFSET 2.33842 -0.294052 0.168128
                  }
                }
              }
              JOINT lPinky1
              {
                OFFSET 8.27202 -0.0477905 -0.4584
                CHANNELS 3 Zrotation Xrotation Yrotation
                JOINT lPinky2
                {
                  OFFSET 1.82734 -0.647385 -0.700984
                  CHANNELS 3 Zrotation Xrotation Yrotation
                  End Site
                  {
                    OFFSET 1.69225 -0.51767 -0.607171
                  }
                }
              }
            }
          }
        }
      }
    }
  }
  JOINT rButtock
  {
    OFFSET -8.77824 4.35084 1.2192
    CHANNELS 3 Zrotation Xrotation Yrotation
    JOINT rThigh
    {
      OFFSET 0 -1.70687 -2.19456
      CHANNELS 3 Zrotation Xrotation Yrotation
      JOINT rShin
      {
        OFFSET 0 -36.8199 0.73152
        CHANNELS 3 Zrotation Xrotation Yrotation
        JOINT rFoot
        {
          OFFSET 0.73152 -45.1104 -5.12064
          CHANNELS 3 Zrotation Xrotation Yrotation
          End Site
          {
            OFFSET -1.1221 -3.69964 12.103
          }
        }
      }
    }
  }
  JOINT lButtock
  {
    OFFSET 8.77824 4.35084 1.2192
    CHANNELS 3 Zrotation Xrotation Yrotation
    JOINT lThigh
    {
      OFFSET 0 -1.70687 -2.19456
      CHANNELS 3 Zrotation Xrotation Yrotation
      JOINT lShin
      {
        OFFSET 0 -36.8199 0.73152
        CHANNELS 3 Zrotation Xrotation Yrotation
        JOINT lFoot
        {
          OFFSET -0.73152 -45.1104 -5.12064
          CHANNELS 3 Zrotation Xrotation Yrotation
          End Site
          {
            OFFSET 1.1221 -3.69964 12.103
          }
        }
      }
    }
  }
}
MOTION
Frames:	4
Frame Time:	0.03333
0.11763999937102199 55.31759858131409 -0.31399999279528856 12.749799717994204 35.70699954677606 9.793799713144821 -17.778799701982894 16.737300013940793 2.034369923297594 5.50376984829086 -10.08949994665583 0.43025898890465275 -9.568039762961098 17.2359994460001 -11.812800216706005 7.906679917172828 -24.86869998499621 -21.535799896461768 -0.0 0.0 0.0 -0.0 0.0 0.0 5.166529864764935e-14 -3.5860800138343487e-13 -8.885669788197401e-14 33.16919836442822 18.083699346532264 32.02339998021273 -16.83630019086554 -9.488030073249922 31.458799467946548 -0.2909180071945151 15.172199731672805 2.1841100814624874 3.3516601743702153e-09 4.045980032165723e-09 1.8005000780964414e-09 5.816520080301448e-09 7.20351028072079e-09 3.065540059426436e-09 3.3516601743702153e-09 4.045970092932344e-09 1.8004800008450146e-09 7.730910121524428 5.474879855648998 0.41731399283890674 3.3516601743702153e-09 4.045980032165723e-09 1.8004899400783942e-09 2.90554006136521 0.9651829962377875 0.10290200252939893 3.3516601743702153e-09 4.045980032165723e-09 1.8004899400783942e-09 10.278599710243157 0.7318009818271524 0.025912300303053633 3.3516498375675003e-09 4.0459899713991025e-09 1.8005000780964414e-09 2.221669932038622 -0.7334870246959406 -0.20891999872313852 5.1656399199793e-14 -3.5860700648946865e-13 -8.920460138239221e-14 -114.32600127123455 45.107098618424885 54.25929938924268 27.712799293125983 -41.71989852598884 -87.06300067080518 5.137330199319676 -52.24209864052779 10.454799807809268 2.5989300262036324e-09 1.4533300111806403e-09 5.879220044406814e-10 4.449380119218456e-09 2.2957100565843e-09 1.126070017786133e-09 2.5989300262036324e-09 1.4533300111806403e-09 5.879220044406814e-10 -7.730910121524428 5.474879855648998 -0.41731399283890674 2.598939965437012e-09 1.4533399504140199e-09 5.879130094344728e-10 -2.90554006136521 0.9651829962377875 -0.10290200252939893 2.598920086970253e-09 1.4533300111806403e-09 5.879159912044866e-10 -10.278599710243157 0.7318009818271524 -0.025912300303053633 2.5989300262036324e-09 1.4533300111806403e-09 5.87909977968292e-10 -2.221669932038622 -0.7334870246959406 0.20891999872313852 -2.0321699793705798e-16 0.0 -3.882510030490358e-19 -67.28710317438204 -53.14940047930478 -53.530101563262946 -2.0649800563932406 70.66360036038867 2.7954399732655433 1.5307700439522103 -3.320259969701687 6.097279989992764 2.0321699793705798e-16 0.0 3.882510030490358e-19 14.963600631778737 6.777539937456177 0.4793210114452212 -0.14329999680887237 32.119599779577776 -2.68606004323649 3.854729956218001 -12.533700216617817 28.501399274317315
0.16420999891124666 55.57199716567993 -0.5079999915324152 12.562499709253176 35.88379899344184 9.658800170425874 -17.932099882809243 15.629699462658598 2.5547400514894743 5.543060084604535 -9.603479907017 0.5829530171225917 -9.72779020368488 17.314599555421317 -11.953600297577587 8.336910117897347 -23.64300034032262 -21.755400723561433 -0.0 0.0 0.0 -0.0 0.0 0.0 1.0720500558822589e-13 -1.2905799715042286e-13 -8.261959598550932e-13 34.64949843305591 17.705600564647867 31.412801558981098 -16.813499311868746 -9.464759618747689 31.411401370201247 -0.2953540016170268 15.28309980567901 2.200879903422161 4.7392900638498664e-09 5.047910018964321e-09 2.6638600561023723e-09 8.220280338093762e-09 9.004349883029478e-09 4.540450134120806e-09 4.739300003083246e-09 5.047900079730942e-09 2.663849918084325e-09 7.730910121524428 5.474879855648998 0.41731399283890674 4.7392900638498664e-09 5.047910018964321e-09 2.6638600561023723e-09 2.90554006136521 0.9651829962377875 0.10290200252939893 4.739300003083246e-09 5.047910018964321e-09 2.6638600561023723e-09 10.278599710243157 0.7318009818271524 0.025912300303053633 4.7392900638498664e-09 5.047919958197701e-09 2.6638600561023723e-09 2.221669932038622 -0.7334870246959406 -0.20891999872313852 1.0717900488371853e-13 -1.2861399538586538e-13 -8.265029695736438e-13 -113.55300144210753 46.14860001401428 52.97179848541152 27.831600188454598 -41.25139877534474 -86.17019932363613 4.50999994905563 -50.023499518851324 9.649650278258994 3.7855299752713684e-09 2.8436999485183723e-09 5.670209893514438e-10 6.505590035025866e-09 4.663450135039704e-09 1.1146000430737715e-09 3.785520036037989e-09 2.8436900092849925e-09 5.670289904343144e-10 -7.730910121524428 5.474879855648998 -0.41731399283890674 3.7855299752713684e-09 2.8436999485183723e-09 5.67016019734754e-10 -2.90554006136521 0.9651829962377875 -0.10290200252939893 3.785520036037989e-09 2.8436900092849925e-09 5.67017013658092e-10 -10.278599710243157 0.7318009818271524 -0.025912300303053633 3.7855299752713684e-09 2.8436999485183723e-09 5.670070247285456e-10 -2.221669932038622 -0.7334870246959406 0.20891999872313852 -2.0321699793705798e-16 0.0 -3.882510030490358e-19 -66.351797560008 -52.59400023185061 -52.66159861406622 -2.064580063439972 70.58889858143624 2.760590000242611 1.9239200014463755 -3.89391005573131 7.977070139211687 2.0321699793705798e-16 0.0 3.882510030490358e-19 14.62799928691016 6.488140126567682 0.10006199786631574 -0.13728099932450444 32.410999555232614 -2.657510065949248 4.024169874053093 -12.644500399107411 28.833001543426846
0.1714499987429008 55.788397789001465 -0.566999992588535 12.744500344971922 35.77680066499901 9.731699633211065 -18.42040035185721 14.526600006039445 3.0855900377456815 5.674620200189559 -9.21620988862457 0.7404929845153755 -9.895950314824239 17.311599394828388 -12.096200133295467 8.845429654435844 -22.833199451947568 -21.94780032229152 -0.0 0.0 0.0 -0.0 0.0 0.0 1.0654899434603819e-13 1.2961199536251356e-13 -1.2816599705944847e-12 35.98760079335311 17.40380011843439 30.899898748542746 -16.760700242037256 -9.413680049039748 31.295598927918263 -0.30502400201703106 15.52449918151477 2.237410102980917 4.852369914717279e-09 4.522109863119482e-09 2.8291000098224493e-09 8.413890243218491e-09 8.0914702589105e-09 4.825419882193233e-09 4.852379853950659e-09 4.522080045419343e-09 2.8291000098224493e-09 7.730910121524428 5.474879855648998 0.41731399283890674 4.852369914717279e-09 4.522109863119482e-09 2.8291000098224493e-09 2.90554006136521 0.9651829962377875 0.10290200252939893 4.852369914717279e-09 4.522109863119482e-09 2.8291000098224493e-09 10.278599710243157 0.7318009818271524 0.025912300303053633 4.8523599754839e-09 4.522109863119482e-09 2.8291099490558287e-09 2.221669932038622 -0.7334870246959406 -0.20891999872313852 1.0650099677859484e-13 1.3040200183595615e-13 -1.2819100044341897e-12 -112.67399707706191 47.21379875092903 51.64530061651418 27.940799545357468 -40.715601170808505 -85.21380208510509 4.196169832166469 -48.79330048706199 9.235939743815798 3.945090054684354e-09 3.2457699673602505e-09 5.536419860838676e-10 6.79053036296749e-09 5.37800985012004e-09 1.0782100248628081e-09 3.945080115450974e-09 3.2457600281268707e-09 5.536579882496087e-10 -7.730910121524428 5.474879855648998 -0.41731399283890674 3.945090054684354e-09 3.2457600281268707e-09 5.536419860838676e-10 -2.90554006136521 0.9651829962377875 -0.10290200252939893 3.945090054684354e-09 3.2457699673602505e-09 5.536419860838676e-10 -10.278599710243157 0.7318009818271524 -0.025912300303053633 3.945090054684354e-09 3.2457699673602505e-09 5.536300093076452e-10 -2.221669932038622 -0.7334870246959406 0.20891999872313852 -2.0321699793705798e-16 0.0 -3.882510030490358e-19 -65.4770005914911 -52.28039892629864 -51.41290001490991 -2.0185100106014127 70.26169836924677 2.7048300434059196 2.186650058060086 -4.192149838953093 9.166019951056024 2.0321699793705798e-16 0.0 3.882510030490358e-19 14.080300077745179 6.458360074899604 -0.12835299492415894 -0.1353589947642334 32.3031986795623 -2.6170499462967967 4.091740081738383 -12.613900297852107 29.097401581292626
0.15399999829242006 55.967700481414795 -0.534999993396923 13.14030041586405 35.675399676580994 9.695700267416866 -19.26990000723567 14.165200182902083 3.373689978257758 6.007740051955305 -9.199909642170335 0.8242790217856276 -9.986469958120772 17.15999993110537 -12.118399955645302 9.025849955135376 -22.54240073293969 -21.953100549087452 -0.0 0.0 0.0 -0.0 0.0 0.0 5.977739712541194e-14 -9.465920158178997e-15 -9.620310169762944e-13 36.79390120977853 17.4199005818554 30.969300300699246 -16.51089973352238 -9.171679616557025 30.75649892691833 -0.3196680076388177 15.881900782666735 2.2916400974435254 4.2100298620809296e-09 2.9255600709865424e-09 2.7701200025940574e-09 7.305649818622639e-09 5.315509962782606e-09 4.730010000428026e-09 4.2100298620809296e-09 2.925530054501736e-09 2.7701200025940574e-09 7.730910121524428 5.474879855648998 0.41731399283890674 4.2100298620809296e-09 2.925549932968495e-09 2.7701200025940574e-09 2.90554006136521 0.9651829962377875 0.10290200252939893 4.2100298620809296e-09 2.925549932968495e-09 2.7701299418274367e-09 10.278599710243157 0.7318009818271524 0.025912300303053633 4.210019922847551e-09 2.925549932968495e-09 2.770140079845484e-09 2.221669932038622 -0.7334870246959406 -0.20891999872313852 5.973700079052755e-14 -9.018750202317506e-15 -9.622360136647481e-13 -112.3089985980056 47.843501211269185 50.9070015634654 27.983199652177614 -40.492899437825656 -84.81659926411217 4.592209813453196 -50.34660161753878 9.758670342696153 3.6294800355187126e-09 2.9787800936868037e-09 4.47865980865434e-10 6.242079886958608e-09 4.895809930556708e-09 9.005249582434997e-10 3.6294800355187126e-09 2.9787699556687564e-09 4.4787900126116123e-10 -7.730910121524428 5.474879855648998 -0.41731399283890674 3.6294899747520924e-09 2.9787800936868037e-09 4.4786702448493884e-10 -2.90554006136521 0.9651829962377875 -0.10290200252939893 3.6294800355187126e-09 2.9787800936868037e-09 4.4786901233161474e-10 -10.278599710243157 0.7318009818271524 -0.025912300303053633 3.6294899747520924e-09 2.9787800936868037e-09 4.4786200517208214e-10 -2.221669932038622 -0.7334870246959406 0.20891999872313852 -2.0321699793705798e-16 0.0 -3.882510030490358e-19 -64.0956016620452 -51.94039893960458 -49.24330067033911 -1.8798300631368854 69.31650264095457 2.581599983843961 2.301630102878315 -4.291690027709097 9.597340420726805 2.0321699793705798e-16 0.0 3.882510030490358e-19 13.636099578847045 6.924269903187799 -0.1241989992689615 -0.13788400364259606 31.836399646021533 -2.5750001001150244 3.998280042004159 -12.48909993511128 29.033498331417988
